<svg xmlns="http://www.w3.org/2000/svg" version="1.1" xmlns:xlink="http://www.w3.org/1999/xlink" width="512" height="512" x="0" y="0" viewBox="0 0 512 512" style="enable-background:new 0 0 512 512" xml:space="preserve" class=""><g><path fill="#00c1fb" d="M500.994 265.242c-.949-135.274-110.248-243.528-245.525-243.241-6.335.013-12.614.267-18.827.753V410.06a248.5 248.5 0 0 1 19.358-.754c52.505 0 101.152 16.516 141.03 44.636 5.542 3.907 13.037 3.683 18.188-.726 52.918-45.287 86.304-112.739 85.776-187.974z" opacity="1" data-original="#00c1fb" class=""></path><path fill="#ff5e95" d="M253.721 22.011C119.46 23.234 11 132.451 11 267c0 74.869 33.583 141.895 86.506 186.835 4.742 4.027 11.62 4.261 16.69.656 39.446-28.044 87.552-44.7 139.525-45.174z" opacity="1" data-original="#ff5e95" class=""></path><path fill="#314dca" d="M103.011 160.384c-40.887-.223-74.359-33.696-74.581-74.583-.068-12.499 2.922-24.293 8.265-34.678.386-.749-.457-1.534-1.173-1.09C13.829 63.489-.492 87.703.013 115.223c.736 40.126 33.452 72.841 73.577 73.578 27.242.5 51.245-13.528 64.779-34.854.561-.884-.411-1.958-1.347-1.488-10.222 5.13-21.779 7.992-34.011 7.925z" opacity="1" data-original="#314dca"></path><path fill="#4f66d1" d="M75 38.814c-14.828 0-28.65 4.303-40.287 11.728-7.426 11.638-11.729 25.46-11.729 40.288 0 41.421 33.579 75 75 75 14.828 0 28.65-4.303 40.287-11.728 7.425-11.637 11.728-25.46 11.728-40.287C150 72.393 116.421 38.814 75 38.814z" opacity="1" data-original="#4f66d1"></path><g fill="#1f3597"><path d="M52.015 104.541a7.5 7.5 0 0 1-7.5-7.5V85.002c0-4.142 3.357-7.5 7.5-7.5s7.5 3.358 7.5 7.5v12.039a7.5 7.5 0 0 1-7.5 7.5zM97.984 104.541a7.5 7.5 0 0 1-7.5-7.5V85.002c0-4.142 3.357-7.5 7.5-7.5s7.5 3.358 7.5 7.5v12.039a7.5 7.5 0 0 1-7.5 7.5zM110.863 154.568a7.476 7.476 0 0 1-5.304-2.197c-8.17-8.17-19.023-12.67-30.56-12.67s-22.39 4.5-30.56 12.67a7.5 7.5 0 0 1-10.607-10.606C44.838 130.761 59.457 124.701 75 124.701s30.163 6.06 41.167 17.064a7.5 7.5 0 0 1-5.304 12.803z" fill="#1f3597" opacity="1" data-original="#1f3597"></path></g><path fill="#ffef31" d="M465.011 160.384c-40.887-.223-74.359-33.696-74.581-74.583-.068-12.499 2.922-24.293 8.265-34.678.386-.749-.457-1.534-1.173-1.09-21.693 13.456-36.014 37.67-35.509 65.19.736 40.126 33.452 72.841 73.577 73.578 27.242.5 51.245-13.528 64.779-34.854.561-.884-.411-1.958-1.347-1.488-10.222 5.13-21.779 7.992-34.011 7.925z" opacity="1" data-original="#ffef31"></path><path fill="#fff261" d="M437 38.814c-14.828 0-28.65 4.303-40.287 11.728-7.425 11.637-11.728 25.46-11.728 40.287 0 41.421 33.579 75 75 75 14.828 0 28.65-4.303 40.287-11.728 7.425-11.637 11.728-25.46 11.728-40.287 0-41.421-33.579-75-75-75z" opacity="1" data-original="#fff261"></path><path fill="#ff9500" d="M414.015 104.541a7.5 7.5 0 0 1-7.5-7.5V85.002c0-4.142 3.357-7.5 7.5-7.5s7.5 3.358 7.5 7.5v12.039a7.5 7.5 0 0 1-7.5 7.5zM459.984 104.541a7.5 7.5 0 0 1-7.5-7.5V85.002c0-4.142 3.357-7.5 7.5-7.5s7.5 3.358 7.5 7.5v12.039a7.5 7.5 0 0 1-7.5 7.5zM401.137 124.701c1.92 0 3.839.732 5.304 2.197 8.17 8.17 19.023 12.67 30.56 12.67s22.39-4.5 30.56-12.67a7.5 7.5 0 0 1 10.607 10.606c-11.005 11.004-25.624 17.064-41.167 17.064s-30.163-6.06-41.167-17.064a7.5 7.5 0 0 1 5.303-12.803z" opacity="1" data-original="#ff9500"></path><path fill="#883f2e" d="M236.333 89.295h-28.025c-45.458 0-82.309 36.851-82.309 82.309V226c0 16.569 13.431 30 30 30h132.642c16.569 0 30-13.431 30-30v-54.396c.001-45.458-36.85-82.309-82.308-82.309z" opacity="1" data-original="#883f2e" class=""></path><path fill="#a44f3e" d="M303.691 89.295h-2.088c-45.458 0-82.309 36.851-82.309 82.309V226c0 16.569 13.431 30 30 30H356c16.569 0 30-13.431 30-30v-54.396c0-45.458-36.851-82.309-82.309-82.309z" opacity="1" data-original="#a44f3e" class=""></path><path fill="#ffcebf" d="M146 264.401c-13.807 0-25-11.193-25-25v-10c0-13.807 11.193-25 25-25s25 11.193 25 25v10c0 13.807-11.193 25-25 25z" opacity="1" data-original="#ffcebf" class=""></path><path fill="#ffbfab" d="M145.998 264.401c-13.806-.001-24.998-11.194-24.998-25v-10c0-13.806 11.192-24.999 24.998-25-6.071 4.561-9.998 11.822-9.998 20v20c0 8.179 3.927 15.439 9.998 20z" opacity="1" data-original="#ffbfab" class=""></path><path fill="#ffcebf" d="M366 264.401c-13.807 0-25-11.193-25-25v-10c0-13.807 11.193-25 25-25s25 11.193 25 25v10c0 13.807-11.193 25-25 25z" opacity="1" data-original="#ffcebf" class=""></path><path fill="#314dca" d="M96 424.401v28.143a245.91 245.91 0 0 0 30 22.159c1.055.661 2.114-3.498 3.18-2.853a244.245 244.245 0 0 0 6.459 3.781V424.4c0-38.66 31.34-70 70-70H166c-38.66.001-70 31.341-70 70.001z" opacity="1" data-original="#314dca"></path><path fill="#4f66d1" d="M229.213 354.401H196c-38.66 0-70 31.34-70 70v50.302a244.478 244.478 0 0 0 29.841 15.954c.847.38 1.834-2.856 2.687-2.485a243.626 243.626 0 0 0 8.94 3.678c1.166.453 2.199 4.508 3.373 4.943C197.365 506.628 226.055 512 256 512c2.554 0 5.099-17.666 7.635-17.743a245.84 245.84 0 0 0 35.578-3.682v-66.173c0-38.661-31.34-70.001-70-70.001z" opacity="1" data-original="#4f66d1"></path><path fill="#80cf00" d="M346 354.401h-90V512c29.945 0 58.635-5.372 85.159-15.205.896-.332 2.018-5.921 2.909-6.263a243.66 243.66 0 0 0 9.182-3.744c1.05-.453 1.867 4.338 2.909 3.871A245.155 245.155 0 0 0 416 452.546v-28.143c0-38.662-31.34-70.002-70-70.002z" opacity="1" data-original="#80cf00"></path><path fill="#ffbfab" d="M277.602 76.522A110.52 110.52 0 0 0 256 74.401c-60.751 0-110 49.249-110 110v40c0 50.351 33.83 92.8 80 105.859v33.457c0 16.549 13.534 30.729 30.083 30.683l.346-.003c2.96-.042 5.315-2.51 5.315-5.47v-54.674a110.084 110.084 0 0 0 15.857-1.973V76.522z" opacity="1" data-original="#ffbfab" class=""></path><path fill="#314dca" d="M163.341 436.931a7.5 7.5 0 0 0-7.5 7.5v46.228a243.294 243.294 0 0 0 15 6.136v-52.364a7.5 7.5 0 0 0-7.5-7.5z" opacity="1" data-original="#314dca"></path><path fill="#6db000" d="M348.659 436.931a7.5 7.5 0 0 0-7.5 7.5v52.364a243.294 243.294 0 0 0 15-6.136v-46.228a7.5 7.5 0 0 0-7.5-7.5z" opacity="1" data-original="#6db000"></path><path fill="#ffcebf" d="M264.056 282.967V76.591C213.819 86.761 176 131.164 176 184.401v40c0 50.351 33.83 92.8 80 105.859v64.141c16.569 0 30-13.431 30-30v-52.529c0-13.778-9.288-25.386-21.944-28.905z" opacity="1" data-original="#ffcebf" class=""></path><path fill="#ffa78f" d="M236.303 279.676a7.501 7.501 0 0 1-10.606-10.607c8.354-8.354 19.329-12.531 30.303-12.531l3.894 3.059v9.609L256 271.53c-7.133 0-14.266 2.716-19.697 8.146z" opacity="1" data-original="#ffa78f"></path><path fill="#ffeee6" d="M271 75.416a109.324 109.324 0 0 0-15 3.127V330.26c.404.114.81.227 1.216.337a52.827 52.827 0 0 0 27.568 0C331.575 317.945 366 275.193 366 224.401v-40c0-55.663-41.345-101.669-95-108.985z" opacity="1" data-original="#ffeee6"></path><path fill="#ffa78f" d="M241.5 231.133a7.5 7.5 0 0 1 10.606-10.607c1.042 1.042 2.424 1.616 3.893 1.616s2.851-.574 3.893-1.616a7.501 7.501 0 0 1 10.606 10.607c-3.875 3.875-9.024 6.009-14.5 6.009s-10.623-2.134-14.498-6.009z" opacity="1" data-original="#ffa78f"></path><path fill="#f89580" d="M215 194.746c-7.042 0-14.084-2.681-19.445-8.041a7.5 7.5 0 0 1 10.607-10.607c4.874 4.873 12.804 4.873 17.678 0a7.5 7.5 0 0 1 10.607 10.607c-5.363 5.36-12.405 8.041-19.447 8.041zM297 194.746c-7.042 0-14.084-2.681-19.445-8.041a7.5 7.5 0 0 1 10.607-10.607c4.874 4.873 12.804 4.873 17.678 0a7.5 7.5 0 0 1 10.607 10.607c-5.363 5.36-12.405 8.041-19.447 8.041z" opacity="1" data-original="#f89580" class=""></path><path fill="#ffa78f" d="M286.303 258.733a7.501 7.501 0 0 0-10.606 0c-5.431 5.431-12.564 8.146-19.697 8.146v14.993c10.974 0 21.949-4.177 30.303-12.531a7.502 7.502 0 0 0 0-10.608z" opacity="1" data-original="#ffa78f"></path><path fill="#883f2e" d="M266.66 0h-21.32c-28.709 0-51.982 23.273-51.982 51.982a51.78 51.78 0 0 0 4.869 21.994c-19.277.062-34.885 15.708-34.885 34.999 0 19.33 15.67 35 35 35H253.5c19.33 0 35-15.67 35-35 0-3.203-.431-6.306-1.237-9.254 18.46-7.978 31.379-26.35 31.379-47.739C318.642 23.273 295.369 0 266.66 0z" opacity="1" data-original="#883f2e" class=""></path><path fill="#a44f3e" d="M313.659 73.976h-66.052c-19.33 0-35 15.67-35 35s15.67 35 35 35h66.052c19.33 0 35-15.67 35-35s-15.67-35-35-35z" opacity="1" data-original="#a44f3e" class=""></path><path fill="#00c1fb" d="m189.185 201.583 6.86 6.86c4.96 4.96 4.96 13.003 0 17.964-4.96 4.96-13.003 4.96-17.964 0-4.96-4.96-4.96-13.003 0-17.964l6.86-6.86a3.003 3.003 0 0 1 4.244 0z" opacity="1" data-original="#00c1fb" class=""></path></g></svg>